# xmcd CD database file
#
# Track frame offsets:
#	150
#	17546
#	37843
#	58978
#	76840
#	92613
#	115916
#	143873
#	161739
#	187890
#	205079
#
# Disc length: 3029 seconds
#
# Revision: 0
# Processed by: cddbd v1.4PL0 Copyright (c) Steve Scherf et al.
# Submitted via: CDex 1.50beta9
#
DISCID=850bd30b
DTITLE=Fra Fra Sound - Kotabra - Kaseko Revisited
DYEAR=1900
DGENRE=Jazz
TTITLE0=Kotomisi
TTITLE1=Mama
TTITLE2=Waiyodi
TTITLE3=Pikin de kos den mama
TTITLE4=Graweh
TTITLE5=Libitori
TTITLE6=Luku fa me dansi
TTITLE7=Aisa
TTITLE8=Worship Mother Earth
TTITLE9=No more
TTITLE10=Kong na wan
EXTD=
EXTT0=
EXTT1=
EXTT2=
EXTT3=
EXTT4=
EXTT5=
EXTT6=
EXTT7=
EXTT8=
EXTT9=
EXTT10=
PLAYORDER=
